<svg xmlns="http://www.w3.org/2000/svg" version="1.1" xmlns:xlink="http://www.w3.org/1999/xlink" xmlns:svgjs="http://svgjs.dev/svgjs" width="1000" height="1000" viewBox="0 0 1000 1000"><rect width="1000" height="1000" fill="#ffffff"></rect><g transform="matrix(0.7,0,0,0.7,150.0000000000001,106.25)"><svg viewBox="0 0 320 360" data-background-color="#ffffff" preserveAspectRatio="xMidYMid meet" height="1125" width="1000" xmlns="http://www.w3.org/2000/svg" xmlns:xlink="http://www.w3.org/1999/xlink"><g id="tight-bounds" transform="matrix(1,0,0,1,-5.684341886080802e-14,0)"><svg viewBox="0 0 320 360" height="360" width="320"><g><svg></svg></g><g><svg viewBox="0 0 320 360" height="360" width="320"><g><path xmlns="http://www.w3.org/2000/svg" d="M85.508 32.884c0-1.117 0.558-2.233 1.675-2.233 1.117 0 2.233 0.558 2.234 2.233 0.558 0 1.675 0 2.233-0.558 2.233 0 4.467-0.558 6.141 0 1.675 0.558 2.792 0.558 4.467 1.117 1.675 0.558 2.792 0 3.908-0.559 2.233-0.558 3.908-1.675 6.141-2.233 1.117-0.558 1.675-0.558 2.792-0.558 1.117-0.558 2.233-0.558 3.908-1.117 2.792-0.558 5.583-1.117 7.817-2.233 2.233-1.117 4.467-1.117 6.699-1.675 1.117 0 1.675-0.558 2.792-1.117 0.558 0 0.558-0.558 1.116-1.116 1.117-0.558 1.675-1.117 2.792-0.559 0.558 0.558 1.675 0.558 2.233 0h0.559c3.35 0 6.7-0.558 10.608 0 0.558 0 1.117 0 1.116 0 1.675-1.117 3.908-1.117 6.142-1.116 0.558 0 1.675 0 2.233 0h0.558c2.233 0 4.467 0 6.142 0.558 1.675 0 2.792 0.558 4.466 1.117 1.675 0 2.792 0 4.467 0.558 1.117 0 2.233 0 3.35 0 0.558 0 1.117 0 1.116 0 2.233 0.558 4.467 0.558 6.7 0.558 1.675 0.558 3.35 1.117 5.583 1.117 0.558 0 1.117 0 1.675 0 0.558 0 1.117 0.558 1.675 0.558l0.558 0.559c2.233 0 3.908 1.117 6.142 1.116 0.558 0 1.675 0 2.233 0.559 1.675 1.117 3.908 1.675 6.141 1.675 1.117 0 1.675 0.558 2.234 1.116 1.675 0.558 2.792 1.117 4.466 1.675 1.117 0.558 2.233 0 3.35 0.558 1.675 0.558 3.908 1.117 5.583 2.792 1.117 1.117 2.233 1.117 3.908 2.233 0.558 0 1.117 0.558 1.675 1.117 1.675 1.117 3.35 2.233 5.025 2.791 0.558 0 1.117 0.558 1.675 0.559 1.675 1.117 3.35 2.792 5.583 3.908 1.117 0.558 1.675 1.117 2.792 1.675h0.558c1.675 1.675 3.908 2.792 5.583 4.466 1.675 1.675 2.792 2.792 5.025 3.909 0 0 0 0 0 0.558 0.558 1.117 1.117 1.675 2.233 2.233 1.117 0.558 1.675 1.117 2.234 1.675 1.675 1.117 3.35 2.233 4.466 3.35 0.558 0.558 1.117 1.117 2.233 2.233 0.558 0.558 1.117 1.117 1.675 1.117 2.233 0.558 3.35 2.233 5.025 3.908 1.117 1.117 2.792 2.792 3.908 3.908 0.558 0.558 1.117 1.675 1.675 2.792 1.117 3.35 2.792 6.7 4.467 9.491 0 0 0 0.558 0.558 1.117v0.558c1.117 1.117 1.675 2.792 2.792 3.908 0.558 0.558 0.558 1.117 1.116 1.675 1.117 1.675 1.675 3.908 2.792 5.583 1.675 2.792 2.792 5.583 3.908 8.375v0.558c0.558 1.117 1.117 2.233 1.675 3.908 0 1.117 1.117 2.233 1.675 3.909 0.558 2.792 2.233 5.583 2.791 8.933 0 0.558 0.558 1.117 0.559 2.233 0.558 1.675 1.117 3.35 1.675 5.025 0 0.558 0.558 1.117 1.116 1.675 1.117 1.117 1.117 2.233 1.117 3.35-0.558 2.233 0 4.467 0.558 6.699 0 0.558 0 1.117 0 2.234 0.558 2.233 1.117 5.025 1.117 7.258 0 0.558 0 1.675 0 2.233 0 1.675 0.558 3.35 1.675 5.025 0 0.558 0.558 0.558 0.558 0.558 0.558 0.558 1.117 1.675 1.675 2.233 0.558 0.558 0.558 0.558 1.117 1.117 1.117 1.117 1.675 2.233 1.675 3.908 0 0.558-0.558 1.675-0.559 2.233 0 0.558 0 1.675 0.559 2.234 0.558 0.558 0.558 1.117 0.558 1.675 0 0.558-0.558 1.117-1.117 1.116v0c-0.558 1.675-2.792 2.233-3.35 3.908-0.558 2.233-1.117 4.467-1.674 6.7-0.558 1.675-0.558 2.792-0.559 4.467 0 1.675-0.558 2.792-0.558 4.466-0.558 2.233-1.117 4.467-1.675 6.7 0 1.117-0.558 2.233-0.558 3.35 0.558 0.558 1.117 1.117 1.675 1.116 1.117 1.117 2.233 2.233 3.349 3.35 0.558 0.558 0.558 1.117 0 1.117-0.558 0.558-1.117 0.558-1.674 0.558-0.558-0.558-1.675-1.117-2.234-1.116-0.558-0.558-1.675-1.117-2.791-0.559 0 1.117-0.558 2.233-0.559 2.792-0.558 1.117-1.117 2.792-1.116 3.908-0.558 2.233-1.675 3.908-2.233 6.142-1.117 2.792-2.233 5.025-3.35 7.258-0.558 1.117-1.117 2.233-1.675 3.35v0c0 1.675-1.675 3.35-2.234 5.024-1.117 2.233-2.233 4.467-3.349 7.258-0.558 1.117-1.117 2.233-1.675 2.792-1.117 2.792-2.233 5.025-3.909 7.258-1.117 1.675-2.233 2.792-3.349 3.35-1.117 1.117-2.233 2.233-3.35 3.35-0.558 0.558-1.117 1.117-1.675 1.675-0.558 0.558-0.558 0.558-1.117 1.116-1.117 1.675-2.792 2.792-3.908 4.467-1.117 1.117-1.675 2.233-3.35 3.35-1.117 1.117-2.233 2.792-3.908 3.35-0.558 0.558-1.117 1.675-1.675 2.233-0.558 0.558-1.117 1.675-1.675 2.233 0 1.117 0.558 2.233 0.558 2.792 0 1.675-1.675 2.233-2.791 1.116-1.675-1.117-1.675-1.117-3.35 0-1.675 1.117-3.35 2.792-5.583 3.35-0.558 0-0.558 0.558-1.117 0.559-1.117 0.558-1.675 1.675-2.792 2.233-1.117 1.117-2.792 1.675-3.908 2.791-0.558 0.558-1.117 0.558-1.675 1.117-1.675 1.117-3.35 1.675-5.024 3.35-0.558 0.558-1.117 0.558-1.675 1.117 0 0.558 0 0.558 0 1.116 0 1.117-1.117 2.233-2.792 1.675-1.675-0.558-2.792 0-4.466 0-1.675 0.558-3.35 1.675-5.025 2.233-0.558 0-1.117 0.558-1.675 1.117-1.675 1.117-3.35 1.675-5.025 2.233-1.117 0-2.233 1.117-3.35 1.117-0.558 0-1.117 0.558-1.675 0.558h-0.558c-2.233 1.675-4.467 2.792-6.7 4.467-0.558 0-0.558 0.558-1.117 1.116-0.558 1.117-1.117 1.675-2.233 1.675-2.792 0-3.908 2.233-3.35 4.467 0 0.558 0.558 1.117 0.559 1.675 0.558 1.117 0 2.233-0.559 2.791-0.558 0.558-2.233 0.558-2.791-0.558-1.117-1.117-1.675-2.233-2.234-3.908-0.558-1.117-1.675-2.233-2.791-2.792-1.117-0.558-2.233-0.558-3.35 0-0.558 0-0.558 0.558-1.117 0.558-1.117 1.117-2.792 1.675-4.466 1.117-0.558 0-1.675 0-1.675 0.558-0.558 0.558-0.558 1.675 0 2.234 1.117 1.117 0.558 2.233 0.558 3.908 0 2.233-1.675 3.35-3.908 2.233-0.558-0.558-1.117-0.558-1.675-1.117-0.558 0-0.558-0.558-0.558-1.116-0.558-0.558-0.558-1.675-1.117-2.792-1.117 0.558-2.233 0.558-3.35 1.117-0.558 0-1.117 0.558-1.675 0.558-1.675 0-2.233 0-2.791-1.675-0.558-1.675-1.675-1.675-2.792-2.233-2.233-0.558-5.025-0.558-7.258-1.675h-0.558c-2.233-1.675-4.467-1.675-7.258-1.675-1.675 0-3.35 0.558-5.025 0.558-1.675 0-2.792 0.558-3.908 1.675-0.558 0.558-1.117 1.117-1.675 1.117-0.558-0.558-0.558-1.117-1.117-1.675v-0.558c0-0.558-0.558-1.117-1.116-0.559-1.117 0.558-2.233-0.558-3.35-1.116-0.558-0.558-1.675-1.675-1.675-2.792-0.558-0.558-1.117-1.117-1.675-1.116-1.117 0-2.792-0.558-3.908-0.559-0.558 0-1.117 0-1.117-0.558-0.558-0.558-1.117-0.558-2.233-0.558-0.558 0-0.558-0.558-1.117-0.559 1.117 1.117 1.675 2.233 2.233 3.35 0 0.558 0.558 0.558 0.559 1.117 0.558 1.117 0 1.675-1.675 1.675-1.117 0-1.117 0-1.675 0.558 0 1.117 0 1.675 0 2.792 0 0.558 0 1.117-1.117 1.675 0 0-0.558 0-0.558 0.558-0.558 0.558-0.558 1.117 0 1.675 1.675 1.117 2.792 1.675 4.466 2.233 1.675 0 1.675 1.117 2.234 2.233 0.558 1.117 0 1.675-0.559 2.792-1.117 1.117-2.233 2.233-3.35 3.35-1.675 0.558-2.792 2.233-4.466 2.233-1.117 0-2.233-0.558-2.792-1.675-0.558-2.792-0.558-5.025 0.559-7.816 0-0.558 0.558-1.117 0-1.675-5.025 0-5.025-1.117-5.025-1.675 0-1.117 0.558-1.675 0.558-2.792 0.558-1.117 0-1.675-1.675-2.233-0.558 0-1.117 0-1.675 0-0.558 0-0.558-0.558-1.675-0.558 1.117-0.558 1.675-0.558 2.792-1.117-0.558-2.233-1.117-3.908-2.792-5.025-0.558-0.558-1.117-1.117-1.116-2.233 0-1.675-1.117-2.792-1.675-3.908-1.117-1.675-3.35-2.233-5.025-2.233-1.675-0.558-2.792-0.558-4.467-1.117-1.675-0.558-3.35-2.233-5.024-2.792-0.558-0.558-1.117-1.117-2.234-1.674-2.233-1.117-3.908-2.792-5.583-4.467-1.117-0.558-1.675-1.675-2.791-2.233-1.117-1.117-1.675-2.233-2.792-2.792-1.117-1.117-2.233-2.233-3.908-3.35-1.675-1.117-2.792-2.792-4.467-4.466-1.117-1.675-2.792-2.792-4.466-3.908-0.558 0-1.117 0-1.675 0-0.558 0-1.117 0.558-1.675 0.558-1.675 0.558-2.792 1.675-4.467 2.233 0.558-0.558 0.558-0.558 0-1.675-0.558-0.558-1.117-1.117-1.674-1.116-1.117 0-2.233 0-3.35 0-2.233 0-4.467 0.558-6.7 0.558-1.675 0-3.908 0.558-5.583 1.117 0.558 1.117 0.558 1.675 1.116 2.791-1.117 0.558-2.233 0.558-3.35 0.558-0.558 0-1.675 0.558-2.233 1.117-0.558 0-0.558 0.558-1.116 0-1.117-0.558-2.233 0-3.35 0.558h-0.559c0 0 0-0.558 0.559-0.558 0.558-0.558 1.117-1.117 1.675-1.675 0.558-0.558 1.117-0.558 2.233-1.117-0.558-0.558-0.558-1.117-0.558-1.116-0.558-0.558-1.117-0.558-1.675 0-0.558 0.558-1.117 1.117-1.675 1.675-0.558 0.558-1.117 0.558-1.675 0-0.558-0.558-0.558-1.117 0-1.675 0-0.558 0.558-1.117 1.116-1.675 0.558-0.558 0.558-1.117 1.117-1.675-1.117-1.117-1.675-2.233-2.792-2.792-1.675-1.117-3.35-2.792-4.466-4.466-1.117-2.233-2.792-3.908-5.025-5.025-0.558-0.558-1.117-1.117-1.675-1.675-0.558-0.558-0.558-0.558-1.116-1.117-1.675 0.558-2.792 1.675-4.467 2.234-0.558 0-0.558 0.558-1.117 1.116-0.558 1.117-1.675 1.117-2.791 1.117-0.558 0-1.117-0.558-0.558-1.117 0.558-1.117 1.117-2.233 2.791-1.675 0 0 0.558 0 0.558-0.558 1.117-1.117 2.233-2.792 3.909-3.908-0.558-1.675-1.675-2.792-2.234-3.908-0.558-0.558-0.558-1.117-0.558-2.234 0-0.558 0-0.558-0.558-1.116 0 0-0.558 0-1.117 0.558-0.558 0.558-1.675 1.117-2.791 0 0-0.558 0-1.117 0.558-1.675l0.558-0.558c1.675-0.558 1.675-2.233 1.675-3.908v-0.559c-0.558-1.117-0.558-1.675 0.558-2.791 1.675-1.117 3.35-3.35 3.909-5.025 0.558-1.117 1.675-1.675 2.791-2.792 1.117-1.117 2.233-2.233 2.792-3.908h0.558c2.233 0.558 2.792-1.117 3.908-2.791 0-0.558 0-1.117 0.559-1.117 1.117-1.117 1.117-2.233 0.558-3.908 0-0.558-0.558-1.675-0.558-2.233 0-0.558 0-0.558-0.559-1.117-1.675-1.117-1.675-2.233 0-3.35 1.117-0.558 1.117-1.675 1.675-2.233 0.558-1.117 0.558-2.233 0.559-3.908-0.558-1.675-0.558-3.908-1.117-5.583-0.558-2.233-1.117-5.025-1.675-7.259 0-0.558 0-0.558 0-1.116 0-1.675 0-2.792-0.558-4.467-0.558-0.558-0.558-1.675-0.559-2.233-0.558-1.675-1.117-2.792-2.791-3.35-1.675-1.117-3.908-1.675-5.583-2.791-0.558-0.558-1.117 0-1.675 0.558-0.558 1.117-1.675 2.233-2.234 3.35-0.558 0.558-1.117 1.675-1.675 2.791-1.117 1.117-3.35 2.233-5.024 0.559-0.558-1.117-1.117-1.675 0-2.792 1.117-1.675 2.233-3.35 3.908-4.466 0.558-0.558 1.117-1.675 1.675-2.234 0.558-1.117 0.558-2.233 0.558-3.35-0.558-2.233-1.117-4.467-1.117-7.258 0-2.792 0-5.025 0.559-7.816 0.558-1.117 0.558-2.792 1.116-3.908 0-0.558 0.558-1.675 1.117-2.233 1.117-1.117 2.233-2.233 2.792-3.909 0.558-1.675 1.675-3.35 1.675-5.024 0-0.558 0.558-1.117 0.558-1.675 0-0.558 0.558-1.675 0.558-2.234-0.558-1.675 0-2.792 0.558-3.908 0.558-1.117 1.117-2.792 1.675-3.908 1.117-2.233 1.117-5.025 3.35-7.258 0.558-1.117 1.117-2.233 1.675-3.35 0.558-2.233 1.675-3.908 2.792-5.583 0.558-0.558 0.558-0.558 0.558-1.117 0.558-1.675 1.675-3.35 2.792-5.025 1.117-1.675 1.117-3.35 1.675-5.024 0-0.558 0-1.117 0.558-1.675 1.675-1.675 1.117-3.908 0.558-6.142-1.117-2.792-1.675-5.583-1.116-8.374 0-0.558 0-1.117 0.558-1.117 0.558-1.117 0.558-1.675 1.117-2.792v-0.558c1.117-1.117 2.233-2.792 3.908-3.35 2.233-1.117 4.467-1.675 7.258-2.233 2.233 0 4.467-1.117 6.141-3.35 0-0.558 0.558-0.558 1.117-1.117l0.558-0.558c0.558-1.117 1.117-1.675 1.675-2.233 1.117-1.117 2.233-2.792 3.35-3.908 1.117-1.117 2.233-2.792 3.908-4.467l0.559-0.558c1.117-1.117 2.233-2.233 3.349-2.792 1.117-1.117 2.233-2.233 3.35-3.35 1.117-1.117 1.675-2.233 2.792-3.35 1.117-0.558 2.233-1.675 3.35-2.791 1.117-1.117 2.233-2.233 2.791-2.792 1.117-1.117 2.792-2.233 3.909-2.791 1.117-0.558 2.233-1.117 2.791-2.792 0.558-1.675 1.117-2.792 1.675-4.466 0-1.117 0.558-2.233 1.117-3.35 0.558 0 1.117 0 2.233-0.558-0.558-0.558-1.117-0.558-1.117-1.117 0-0.558 0.558-1.117 0.559-1.117 0-0.558 0.558-1.117 0.558-1.675 0 0 0.558 0 0.558-0.558 0 0 0.558 0 0.559-0.558-1.117 0.558-1.675 0-2.234-0.559 0.558 0.558 1.117 0.558 2.234 1.117 0 0 0.558 0 0.558-0.558 0-0.558 0-1.117 0-1.117 0 0-0.558 0-1.117 0-0.558 0-1.117 0.558-1.675 0.558zM182.097 295.292c0-0.558-0.558-0.558-0.559-1.117-0.558-1.117 0-1.675 0.559-2.233 0.558-0.558 1.117-0.558 2.233-0.558 1.117 0.558 1.675 1.117 1.675 2.233 0 0.558 0 1.675 0 2.233 0.558 2.233 0.558 2.233 2.791 2.233 1.117 0 2.233 0 3.35 0 2.233-0.558 4.467-1.675 6.7-2.233 2.233-0.558 4.467-1.117 6.7-1.675 0.558 0 1.117 0 2.233 0 2.233 0.558 3.908 0 5.583-1.117 0.558-0.558 1.675-0.558 2.233-1.116 1.117-0.558 2.233-0.558 3.35-1.117 2.792-1.675 5.583-2.792 7.817-4.466 1.675-1.117 3.35-2.233 5.024-3.35 1.675-1.117 3.35-2.233 5.025-3.35 1.117-0.558 2.792-1.675 3.908-2.792 2.233-1.675 3.908-3.35 6.142-4.466 1.117-0.558 1.675-1.117 2.233-1.675 1.117-0.558 1.675-1.675 2.792-2.233 0.558-0.558 1.117-1.117 2.233-1.675 0.558-0.558 0.558-0.558 0.558-1.117 1.675-1.117 3.35-3.35 4.467-5.025 1.117-1.117 2.233-2.233 3.35-3.908 1.675-1.675 2.792-3.908 4.466-6.141 1.117-1.117 2.233-2.792 2.792-3.909 1.117-2.233 2.233-4.467 3.908-6.141v-0.558c1.117-2.233 2.233-4.467 3.35-6.7 1.675-2.792 2.792-6.141 4.466-8.933 0.558-1.117 1.117-2.233 1.117-3.35 1.117-2.233 1.675-4.467 2.233-6.7 0-0.558 0-0.558 0.559-1.116 1.675-3.35 2.792-6.7 3.349-10.608 0.558-2.233 1.117-4.467 1.675-6.7 1.117-3.35 1.117-6.141 1.675-9.491 0.558-2.233 0.558-5.025 0.559-7.258 0.558-3.35 0.558-7.258 0-10.608 0-2.792-0.558-6.141-0.559-8.933 0-2.792-0.558-5.025-1.116-7.817-0.558-2.792-1.117-5.025-1.675-7.816-1.117-2.233-1.675-4.467-2.234-7.258-0.558-2.233-1.675-3.908-1.674-6.142 0-1.675-0.558-3.35-2.234-3.908-1.675-0.558-2.792-1.117-4.466-2.233-3.35-2.233-5.025-5.025-4.467-8.375 0-1.675 0.558-3.908 1.117-5.583 0.558-1.675 1.117-3.35 0-4.467-0.558-1.675-1.675-2.792-2.233-3.908-1.117-1.675-1.675-2.792-2.792-3.908-1.117-2.233-2.233-4.467-3.908-6.141-2.233-2.792-3.908-5.583-6.7-7.817l-0.558-0.558c-1.675-2.233-3.35-4.467-5.583-6.142-1.117-1.117-2.233-2.233-3.35-2.791-0.558-0.558-1.117-1.117-2.233-1.675-1.675-1.117-3.35-1.675-4.467-2.792-1.675-1.675-3.908-2.792-5.583-3.908 0 0-0.558 0-0.558-0.558-2.233-1.117-3.908-1.675-6.142-2.792-2.233-1.117-4.467-1.675-6.7-1.675-0.558 0-0.558 0-1.116 0-0.558-0.558-1.675-0.558-2.233-0.558-0.558 0-0.558 0-1.117 0-1.117-0.558-2.792 0-3.908 0-2.233 0.558-4.467 0.558-6.7-0.558-2.792-1.117-5.025-2.233-7.258-3.35-1.675-1.117-2.792-2.233-4.467-3.35-3.35-2.792-6.7-6.141-10.608-8.933 0.558-2.792-0.558-3.35-2.791-3.35-1.117 0-2.233 0.558-3.35 1.117-0.558 0.558-0.558 0.558-1.117 1.116-1.675 1.117-2.792 2.792-4.466 3.909-2.792 1.675-3.908 1.117-6.142 0-0.558-0.558-1.117-1.117-1.675-1.675-1.117-1.117-2.233-2.792-2.791-3.909-1.117-2.233-3.35-2.233-5.583-2.233-1.117 0-2.792 0.558-3.908 0.558-2.233 0-4.467 1.117-5.584 2.792-1.117 1.675-2.233 3.35-3.908 5.025-0.558 0.558-1.675 1.117-2.233 2.233-1.117 1.117-2.233 1.117-3.35 0-0.558-0.558-1.117-0.558-1.675-1.117-0.558 0.558-1.117 1.117-1.117 1.675-0.558 1.117-1.117 2.233-1.674 3.909-0.558 1.675-1.675 3.35-2.792 4.466-0.558 0.558-0.558 0.558-1.117 1.117-0.558 1.117-2.233 1.675-3.35 1.675-1.117 1.117-2.233 2.792-2.791 3.908-0.558 1.117-1.117 2.233-1.675 3.908-0.558 0.558-0.558 1.675-1.117 2.233-0.558 1.117-0.558 1.675-0.558 2.792 0.558 1.675-0.558 2.233-2.233 2.791-1.117 0-1.117 0-1.675 1.117 0 1.675 0.558 2.792 1.116 4.467 0.558 0.558 1.117 1.675 1.117 2.233 0 1.117 0.558 1.675 1.675 2.233 0.558 0.558 1.117 1.117 1.675 1.117 0.558 0 0.558 0.558 1.117 0.558 0.558 0.558 1.117 0 1.116-0.558 0.558-1.675 1.117-3.35 1.117-5.025 0.558-2.233 0.558-3.908 1.116-6.142 0.558-1.117 1.117-1.675 1.675-2.233 0 0 0.558 0 1.117 0v0.559c-0.558 2.792-1.675 6.141-2.233 8.933-0.558 1.117-0.558 2.233-1.117 3.349 0 0.558-0.558 1.117-1.116 1.117-1.117 0.558-2.233 1.117-3.35 1.117-0.558 0-1.117 0-1.675 0-1.117-0.558-2.233-1.675-3.35-2.234-0.558-0.558-1.117-1.117-1.675-1.674-0.558-1.117-1.117-2.233-1.675-3.35-0.558-1.117-1.117-1.675-2.233-2.234-0.558-0.558-1.117-0.558-1.675-1.116-1.117-1.117-2.233-1.675-3.908-1.675-0.558 0-1.675 0-2.234 0-0.558 0-1.675 0.558-2.233 1.116-1.117 0.558-1.675 0.558-2.791 0-2.792-1.117-5.583-0.558-8.375 0.559-1.117 0.558-2.233 1.117-3.35 1.116-2.792 0-5.025 0-7.816 0-2.792 0-5.025-0.558-7.817-1.116-1.117 0-2.233 0-3.35 0-2.233 0.558-2.792 2.233-2.233 4.466 0.558 2.233 1.117 5.025 1.117 7.258 0 1.675 0 3.35 0 5.025 0 1.117 0 1.675 0 2.792 0 1.675-0.558 3.35-0.559 5.025-0.558 3.35-2.233 6.141-4.466 8.374-1.675 1.675-3.908 3.35-6.142 3.908-1.117 0.558-2.233 1.117-3.908 1.675-2.792 1.117-5.025 3.35-6.7 6.142-0.558 1.117-1.117 2.233-1.674 3.35-1.117 1.675-1.675 2.792-2.792 4.466-0.558 1.117-1.675 2.233-2.233 3.35-0.558 1.117-1.675 1.675-1.675 2.792-1.117 2.233-1.675 4.467-2.792 6.699-0.558 1.117-0.558 2.792-1.116 3.909-1.117 2.233-1.117 4.467-1.117 7.258 0 0.558 0 1.117 0 2.233 0 2.792-0.558 6.141-0.558 8.933 0 2.792 0 5.583 0.558 8.375 0 1.117 0 2.792 0 3.908 0 2.233 0.558 5.025 0.558 7.258 0 2.233 0 5.025 1.117 7.258v0.558c0.558 2.233 0.558 4.467 1.116 6.7 0 0.558 0 1.117 0.559 1.675 1.117 3.35 1.675 6.141 2.791 9.491 0.558 2.233 1.675 4.467 2.234 6.7 0.558 2.233 2.792 4.467 3.349 7.258v0c1.675 3.35 3.35 6.7 5.584 10.05 0.558 1.117 1.675 2.233 2.233 3.35 1.117 1.675 1.675 3.35 2.791 4.466 0.558 1.117 1.675 2.233 2.234 2.792 0.558 1.117 1.117 2.233 2.233 3.35 1.117 1.117 2.233 2.792 3.35 3.908 1.675 2.792 3.908 5.025 6.141 6.7 1.117 1.117 2.233 1.675 3.35 2.791 0.558 0.558 1.117 0.558 1.117 1.117 0.558 0.558 1.117 1.117 2.233 1.675 4.467 2.233 7.816 5.583 11.725 8.933 1.675 1.675 3.35 3.35 5.583 4.466 2.233 1.675 3.908 3.35 6.7 3.908 0 0 0.558 0 0.558 0.559 1.117 1.117 2.792 1.675 3.908 2.233 2.233 1.117 5.025 2.233 7.258 3.35 0.558 0.558 1.675 0.558 2.233 1.117 1.675 0.558 3.35 1.117 5.025 1.674 1.675 0.558 2.792 1.117 4.467 1.117h0.558c1.117 0.558 1.675 0.558 2.792 0 0.558 0 1.117 0 1.116 0.558 0 0.558 0.558 0.558 1.117 0.559 0.558 0 1.117 0 2.233 0 0.558-0.558 0.558-1.117 1.117-2.234 0.558 0.558 1.117 0.558 1.116 0.559 0.558 1.117 1.675 1.117 2.792 1.116h0.558c1.117 0 1.675 0 2.233-0.558 0-0.558 1.117-0.558 1.675-0.558 1.675 0.558 3.35 0.558 5.025 1.116 1.117 0.558 2.792 0.558 3.35-0.558 0.558-0.558 1.117-1.117 2.233-0.558 1.117 0.558 1.675 0.558 2.792 0 0.558 0 1.117 0 1.117 0 1.675 0.558 2.792 0.558 4.466 1.116 2.233 0.558 2.233 0.558 3.908-1.116 0.558-0.558 1.675-0.558 2.233 0 0.558 1.117 0.558 1.675 0.559 2.791 0.558 0 0.558 0 1.116-0.558 0-1.117 0.558-1.117 1.675-1.675 0.558 0.558 0.558 0.558 1.117 0.558 1.117 1.117 1.675 1.117 2.233-0.558 0-0.558 0-1.117 0.559-1.116 0.558 0 1.117 0.558 1.116 0.558 0.558 1.117 1.675 1.675 2.233 2.791 1.117 1.117 2.792 1.117 3.35 0 0.558-0.558 1.117-0.558 1.675-0.558 0-0.558 0-1.117 0-1.675 1.675 1.117 1.117 1.117 0.559 1.117zM89.417 34.559c1.675 0.558 2.792 0.558 3.349-0.558-1.117 0.558-2.233-0.558-3.349 0.558z" fill="#00ebff" fill-rule="nonzero" stroke="none" stroke-width="1" stroke-linecap="butt" stroke-linejoin="miter" stroke-miterlimit="10" stroke-dasharray="" stroke-dashoffset="0" font-family="none" font-weight="none" font-size="none" text-anchor="none" style="mix-blend-mode: normal" data-fill-palette-color="tertiary"></path></g><g transform="matrix(1,0,0,1,70,90)"><svg viewBox="0 0 180 180" height="180" width="180"><g><svg viewBox="0 0 180 180" height="180" width="180"><g><svg viewBox="0 0 180 180" height="180" width="180"><g id="textblocktransform"><svg viewBox="0 0 180 180" height="180" width="180" id="textblock"><g><svg viewBox="0 0 180 180" height="180" width="180"><g transform="matrix(1,0,0,1,36.966991411008934,36.966991411008934)"><svg viewBox="0 0 106.06601717798213 106.06601717798213" height="106.06601717798213" width="106.06601717798213"><g><circle r="53" cx="53.033008588991066" cy="53.033008588991066" fill="#00ebff" data-fill-palette-color="accent"></circle><svg xmlns="http://www.w3.org/2000/svg" data-name="Layer 1" viewBox="2.430551767349243 20.791906356811523 95.1390609741211 58.46809387207031" x="15.90990257669732" y="15.90990257669732" height="74.24621202458749" width="74.24621202458749" class="icon-o-0" data-fill-palette-color="quaternary" id="o-0"><path d="M62.78 23l32 55.42 1.3-2.26h-64l1.3 2.26L65.37 23a1.5 1.5 0 0 0-2.59-1.51L30.79 77a1.51 1.51 0 0 0 1.3 2.26h64A1.51 1.51 0 0 0 97.37 77l-32-55.42A1.5 1.5 0 0 0 62.78 23Z" fill="#ffffff" data-fill-palette-color="quaternary"></path><path d="M34.63 23l32 55.42 1.3-2.26h-64l1.3 2.26L37.22 23a1.5 1.5 0 0 0-2.59-1.51L2.63 77a1.51 1.51 0 0 0 1.3 2.26h64A1.51 1.51 0 0 0 69.21 77l-32-55.42A1.5 1.5 0 0 0 34.63 23Z" fill="#ffffff" data-fill-palette-color="quaternary"></path></svg></g></svg></g><path d="M7.707 123.244l0.788 2.261-0.757 0.264-4.305-12.352 0.757-0.264 0.592 1.698 11.468-3.997 1.657 4.755c0.289 0.828 0.441 1.577 0.456 2.246 0.009 0.671-0.104 1.211-0.338 1.619v0c-0.438 0.784-1.051 1.313-1.841 1.588v0c-0.957 0.334-1.775 0.278-2.452-0.168v0c-0.238-0.164-0.395-0.28-0.47-0.348-0.068-0.071-0.184-0.194-0.346-0.369v0c0.096 0.815-0.036 1.54-0.396 2.173-0.362 0.627-0.928 1.074-1.697 1.343v0c-1.158 0.404-2.196 0.254-3.116-0.449zM9.994 115.352l-3.337 1.164 1.126 3.231c0.264 0.757 0.586 1.297 0.967 1.621 0.373 0.32 0.892 0.364 1.559 0.132v0c1.087-0.379 1.327-1.438 0.72-3.178v0zM15.069 113.584l-3.173 1.106 0.913 2.619c0.521 1.494 1.289 2.064 2.304 1.711v0c0.589-0.205 0.946-0.533 1.072-0.983 0.133-0.452 0.067-1.057-0.196-1.814v0zM14.665 137.015l0.858 1.58-0.704 0.382-1.913-3.521 2.352-4.797-1.369-2.519-3.828 2.08-1.903-3.504 0.704-0.382 0.859 1.58 10.672-5.798 2.3 4.235c0.942 1.734 1.325 3.135 1.15 4.204-0.178 1.064-0.915 1.947-2.209 2.65v0c-1.878 1.02-3.505 0.844-4.882-0.528v0zM16.932 129.586c0.589 1.083 1.158 1.729 1.707 1.937 0.544 0.211 1.189 0.114 1.935-0.291 0.746-0.405 1.145-0.883 1.197-1.434 0.058-0.554-0.193-1.345-0.752-2.374v0l-1.324-2.438-4.063 2.207zM15.741 138.931l1.093 1.428 9.644-7.382 5.527 7.22-1.631 1.249-4.197-5.482-2.717 2.079 3.772 4.928-1.55 1.187-3.773-4.928-2.749 2.105 4.334 5.662-0.995 0.762 1.093 1.428-0.637 0.487-7.85-10.256zM23.602 149.197l1.289 1.254 8.47-8.704 6.517 6.342-1.433 1.472-4.949-4.815-2.386 2.452 4.448 4.328-1.362 1.399-4.448-4.328-2.414 2.482 5.11 4.973-0.874 0.898 1.288 1.254-0.559 0.575-9.256-9.008zM32.154 157.705l1.466 1.041 0.512-0.72 11.481-3.136 0.035-0.051-5.955-4.231 1.155-1.625 8.426 5.987-0.982 1.382-11.446 3.123-0.03 0.042 6.223 4.422-0.708 0.997 1.466 1.041-0.465 0.654-11.642-8.273zM43.701 166.004l1.598 0.824 5.566-10.795 8.083 4.167-0.942 1.827-6.137-3.164-1.568 3.041 5.516 2.844-0.895 1.735-5.516-2.844-1.587 3.078 6.338 3.268-0.574 1.114 1.598 0.824-0.367 0.712-11.48-5.919zM66.751 175.81l1.704 0.572-0.255 0.76-3.799-1.276-1.544-5.115-2.717-0.913-1.388 4.13-3.779-1.27 0.255-0.76 1.705 0.573 3.868-11.513 4.568 1.535c1.87 0.628 3.105 1.394 3.705 2.296 0.594 0.9 0.656 2.049 0.187 3.445v0c-0.681 2.026-1.992 3.005-3.936 2.938v0zM63.352 168.825c1.169 0.393 2.025 0.478 2.57 0.257 0.542-0.215 0.948-0.726 1.219-1.531 0.271-0.805 0.237-1.427-0.1-1.865-0.335-0.445-1.057-0.854-2.167-1.227v0l-2.63-0.884-1.473 4.383zM72.039 177.183l1.597 0.349-0.171 0.783-5.05-1.102 0.171-0.783 1.576 0.344c-0.215-0.299-0.28-0.643-0.196-1.031 0.086-0.395 0.288-0.694 0.606-0.899 0.316-0.197 0.662-0.255 1.037-0.173 0.375 0.082 0.665 0.278 0.871 0.589 0.211 0.319 0.274 0.673 0.189 1.062-0.085 0.388-0.295 0.675-0.63 0.861zM84.463 178.621l4.254 0.412-0.077 0.798-14.42-1.398 0.077-0.798 1.79 0.174 1.171-12.089 4.429 0.429c2.311 0.224 4.033 0.959 5.165 2.204 1.132 1.245 1.599 2.887 1.401 4.926v0c-0.266 2.741-1.529 4.521-3.79 5.342zM86.054 173.066v0c0.286-2.952-1.262-4.592-4.643-4.92v0l-2.168-0.21-0.857 8.836 2.414 0.234c1.561 0.151 2.794-0.104 3.697-0.767 0.897-0.663 1.416-1.721 1.557-3.173zM103.121 177.769l2.138-0.202 0.076 0.798-4.113 0.389-1.567-2.813-6.465 0.612-1.01 3.058-4.113 0.389-0.075-0.798 2.138-0.202 4.184-12.596 2.333-0.221zM93.891 174.464l4.685-0.444-2.847-5.098zM113.335 175.822l2.253-0.517 0.179 0.781-11.377 2.61-0.179-0.781 2.314-0.531c-0.65-0.167-1.266-0.416-1.848-0.746v0l0.972-1.92c1.53 0.816 2.979 1.067 4.348 0.752v0c0.688-0.158 1.198-0.429 1.531-0.815 0.34-0.387 0.454-0.825 0.342-1.312-0.112-0.487-0.389-0.824-0.833-1.011-0.442-0.18-1.153-0.277-2.133-0.29-0.972-0.009-1.723-0.051-2.253-0.126-0.524-0.077-1.007-0.222-1.45-0.437v0c-0.871-0.397-1.441-1.18-1.709-2.349-0.268-1.168-0.05-2.164 0.654-2.986 0.702-0.829 1.678-1.386 2.927-1.673v0c0.808-0.185 1.64-0.236 2.495-0.151 0.854 0.078 1.627 0.291 2.318 0.639v0l-0.772 1.874c-0.452-0.255-1.02-0.416-1.702-0.484-0.692-0.073-1.348-0.039-1.969 0.103-0.621 0.142-1.099 0.386-1.435 0.73-0.342 0.346-0.455 0.775-0.337 1.29 0.116 0.507 0.406 0.852 0.87 1.034 0.457 0.183 1.369 0.283 2.736 0.3 1.366 0.01 2.441 0.224 3.225 0.641 0.791 0.416 1.304 1.135 1.539 2.156v0c0.285 1.242 0.05 2.315-0.706 3.219zM130.082 170.414l-0.299-0.744-1.669 0.671-4.531-11.268-2.03 0.816 2.093 5.206-5.958 2.396-2.094-5.206-2.03 0.817 4.83 12.012 2.031-0.817-1.978-4.919 5.958-2.396 1.978 4.919zM116.427 175.041l1.668-0.671 0.299 0.744-1.668 0.671zM139.728 163.698l2.044-1.245 0.417 0.684-11.17 6.806-0.417-0.685 1.535-0.935-6.319-10.372 4.3-2.62c0.749-0.456 1.449-0.762 2.1-0.918 0.655-0.15 1.206-0.153 1.654-0.009v0c0.858 0.263 1.505 0.752 1.94 1.465v0c0.527 0.866 0.645 1.677 0.351 2.433v0c-0.11 0.267-0.19 0.445-0.241 0.532-0.055 0.081-0.151 0.22-0.288 0.416v0c0.777-0.265 1.513-0.288 2.207-0.069 0.689 0.222 1.245 0.681 1.67 1.377v0c0.638 1.047 0.71 2.094 0.217 3.14zM131.531 163.121l1.839 3.019 2.922-1.78c0.684-0.417 1.145-0.846 1.382-1.287 0.234-0.432 0.168-0.949-0.199-1.552v0c-0.599-0.983-1.685-0.995-3.259-0.036v0zM128.735 158.532l1.748 2.869 2.37-1.443c1.351-0.823 1.747-1.694 1.187-2.613v0c-0.324-0.532-0.72-0.813-1.186-0.841-0.47-0.034-1.047 0.157-1.732 0.574v0zM151.065 154.422l3.192-2.796 0.528 0.602-11.71 10.257-0.528-0.603 3.192-2.796c-1.142 0.235-2.268 0.165-3.379-0.209-1.106-0.379-2.07-1.037-2.891-1.975v0c-1.255-1.433-1.81-3.059-1.665-4.88 0.14-1.826 0.934-3.373 2.382-4.641 1.453-1.273 3.094-1.858 4.922-1.756 1.824 0.096 3.363 0.861 4.618 2.293v0c0.812 0.928 1.335 1.972 1.569 3.133 0.239 1.157 0.162 2.28-0.23 3.371zM144.857 147.77c-1.265-0.103-2.382 0.27-3.351 1.119-0.964 0.844-1.478 1.9-1.542 3.167-0.06 1.273 0.339 2.399 1.197 3.378 0.858 0.979 1.919 1.52 3.183 1.623 1.27 0.108 2.386-0.26 3.35-1.104 0.969-0.849 1.483-1.909 1.543-3.182 0.064-1.268-0.332-2.391-1.189-3.369-0.858-0.979-1.921-1.523-3.191-1.632zM162.95 140.481l1.313-1.7 0.634 0.49-2.525 3.269-3.125-0.778-3.97 5.14 1.543 2.827-2.525 3.269-0.634-0.49 1.312-1.7-6.339-11.66 1.432-1.854zM154.23 144.963l2.877-3.724-5.667-1.404zM169.805 129.127l0.883-1.567 0.698 0.393-1.967 3.492-5.313 0.556-1.407 2.498 3.795 2.138-1.956 3.474-0.698-0.393 0.882-1.567-10.582-5.961 2.365-4.198c0.968-1.719 1.952-2.788 2.951-3.209 0.996-0.414 2.135-0.26 3.419 0.464v0c1.862 1.049 2.578 2.521 2.146 4.416v0zM162.307 131.153c0.605-1.074 0.85-1.9 0.734-2.475-0.11-0.573-0.535-1.068-1.275-1.485-0.74-0.417-1.357-0.501-1.85-0.252-0.5 0.245-1.037 0.878-1.612 1.898v0l-1.362 2.418 4.029 2.269zM174.357 117.545l1.456-4.019 0.754 0.273-4.938 13.621-0.754-0.274 0.613-1.69-11.418-4.14 1.517-4.183c0.792-2.183 1.931-3.668 3.418-4.454 1.488-0.787 3.194-0.831 5.12-0.133v0c2.589 0.939 3.999 2.605 4.232 4.999zM169.372 114.622v0c-2.788-1.011-4.762 0.081-5.92 3.275v0l-0.742 2.048 8.346 3.026 0.826-2.28c0.535-1.475 0.593-2.732 0.177-3.772-0.419-1.034-1.315-1.799-2.687-2.297z" fill="#00ebff" data-fill-palette-color="primary"></path><path d="M19.202 59.779L19.99 57.518 20.747 57.782 16.442 70.134 15.685 69.87 16.277 68.172 4.808 64.175 6.465 59.421C6.754 58.593 7.1 57.912 7.504 57.378 7.914 56.846 8.338 56.493 8.776 56.319V56.319C9.606 55.978 10.415 55.944 11.205 56.219V56.219C12.162 56.553 12.768 57.105 13.021 57.875V57.875C13.106 58.152 13.157 58.34 13.173 58.439 13.182 58.537 13.196 58.705 13.215 58.944V58.944C13.647 58.246 14.2 57.76 14.876 57.488 15.549 57.222 16.27 57.223 17.04 57.491V57.491C18.198 57.895 18.918 58.657 19.202 59.779ZM12.505 64.54L15.843 65.703 16.969 62.472C17.233 61.715 17.316 61.091 17.218 60.6 17.125 60.118 16.746 59.761 16.079 59.529V59.529C14.993 59.15 14.146 59.831 13.54 61.571V61.571ZM7.43 62.771L10.603 63.877 11.516 61.257C12.037 59.763 11.79 58.839 10.774 58.485V58.485C10.185 58.28 9.702 58.314 9.323 58.589 8.938 58.861 8.614 59.375 8.35 60.132V60.132ZM25.416 47.691L26.274 46.111 26.979 46.494 25.066 50.015 19.761 50.653 18.393 53.172 22.221 55.252 20.318 58.755 19.613 58.372 20.472 56.792 9.8 50.994 12.1 46.76C13.042 45.026 14.009 43.942 15.002 43.507 15.991 43.078 17.133 43.215 18.427 43.918V43.918C20.305 44.938 21.043 46.399 20.641 48.301V48.301ZM17.95 49.833C18.538 48.749 18.77 47.92 18.646 47.346 18.527 46.775 18.095 46.286 17.349 45.881 16.602 45.475 15.984 45.401 15.494 45.657 14.998 45.91 14.471 46.551 13.911 47.58V47.58L12.587 50.018 16.65 52.225ZM25.532 47.255L26.625 45.828 16.981 38.445 22.508 31.225 24.14 32.474 19.943 37.957 22.66 40.036 26.432 35.108 27.982 36.295 24.21 41.223 26.96 43.328 31.294 37.665 32.289 38.427 33.382 37 34.019 37.487 26.168 47.743ZM32.296 38.225L33.585 36.971 25.114 28.267 31.631 21.925 33.065 23.397 28.116 28.213 30.502 30.665 34.95 26.337 36.312 27.736 31.864 32.064 34.279 34.546 39.389 29.573 40.264 30.471 41.552 29.217 42.111 29.791 32.855 38.799ZM39.507 30.835L40.973 29.793 40.461 29.073 41.276 17.199 41.24 17.149 35.285 21.381 34.131 19.756 42.557 13.768 43.539 15.15 42.723 26.987 42.752 27.029 48.976 22.607 49.684 23.603 51.15 22.562 51.614 23.215 39.971 31.488ZM49.681 23.371L51.28 22.547 45.714 11.752 53.796 7.585 54.738 9.411 48.601 12.576 50.169 15.617 55.685 12.773 56.58 14.508 51.064 17.352 52.65 20.43 58.988 17.162 59.563 18.276 61.161 17.452 61.528 18.164 50.049 24.083ZM71.144 14.236L72.849 13.663 73.104 14.423 69.306 15.699 64.986 12.555 62.269 13.468 63.656 17.597 59.877 18.867 59.622 18.107 61.327 17.535 57.458 6.022 62.027 4.487C63.897 3.859 65.343 3.723 66.367 4.08 67.383 4.44 68.126 5.317 68.595 6.714V6.714C69.276 8.739 68.822 10.312 67.232 11.431V11.431ZM64.218 10.721C65.387 10.328 66.122 9.879 66.421 9.373 66.724 8.874 66.739 8.222 66.469 7.417 66.198 6.612 65.796 6.136 65.263 5.99 64.728 5.838 63.905 5.948 62.794 6.321V6.321L60.165 7.205 61.637 11.588ZM75.237 13.193L76.833 12.845 77.004 13.628 71.954 14.729 71.783 13.946 73.36 13.602C73.039 13.419 72.837 13.134 72.752 12.746 72.666 12.351 72.725 11.995 72.929 11.677 73.135 11.365 73.425 11.169 73.8 11.087 74.174 11.005 74.52 11.063 74.837 11.261 75.161 11.463 75.366 11.759 75.451 12.147 75.535 12.535 75.464 12.884 75.237 13.193ZM86.337 11.963L90.592 11.551 90.669 12.348 76.249 13.746 76.172 12.948 77.961 12.775 76.79 0.686 81.218 0.257C83.529 0.033 85.36 0.423 86.71 1.428 88.06 2.433 88.834 3.955 89.031 5.993V5.993C89.297 8.734 88.399 10.724 86.337 11.963ZM86.832 6.206V6.206C86.546 3.254 84.712 1.942 81.33 2.27V2.27L79.162 2.48 80.019 11.316 82.432 11.082C83.994 10.931 85.154 10.443 85.914 9.619 86.667 8.796 86.973 7.659 86.832 6.206ZM102.831 12.817L104.969 13.019 104.893 13.817 100.781 13.428 99.77 10.37 93.305 9.757 91.738 12.571 87.626 12.182 87.702 11.384 89.84 11.586 96.314 0 98.646 0.221ZM94.385 7.837L99.07 8.28 97.231 2.739ZM111.577 14.527L113.83 15.044 113.651 15.825 102.274 13.215 102.454 12.434 104.767 12.965C104.255 12.531 103.809 12.039 103.43 11.488V11.488L105.142 10.184C106.163 11.584 107.357 12.442 108.726 12.756V12.756C109.414 12.914 109.992 12.892 110.46 12.69 110.934 12.489 111.227 12.145 111.339 11.658 111.451 11.171 111.348 10.746 111.03 10.385 110.711 10.031 110.113 9.634 109.237 9.194 108.367 8.762 107.709 8.397 107.264 8.098 106.827 7.801 106.455 7.459 106.15 7.073V7.073C105.539 6.336 105.368 5.383 105.636 4.214 105.904 3.046 106.534 2.245 107.526 1.812 108.519 1.372 109.64 1.296 110.889 1.582V1.582C111.697 1.767 112.467 2.085 113.201 2.534 113.935 2.977 114.538 3.505 115.009 4.119V4.119L113.497 5.469C113.201 5.043 112.761 4.65 112.175 4.291 111.585 3.924 110.979 3.669 110.358 3.527 109.738 3.384 109.201 3.395 108.749 3.558 108.29 3.72 108.002 4.058 107.884 4.572 107.767 5.079 107.878 5.516 108.216 5.881 108.547 6.245 109.324 6.733 110.547 7.344 111.772 7.948 112.647 8.609 113.171 9.327 113.702 10.046 113.85 10.916 113.615 11.938V11.938C113.331 13.18 112.651 14.043 111.577 14.527ZM126.03 20.891L126.329 20.147 124.66 19.476 129.192 8.208 127.161 7.391 125.068 12.596 119.11 10.201 121.203 4.995 119.172 4.179 114.342 16.191 116.373 17.007 118.351 12.088 124.309 14.484 122.331 19.403ZM112.973 14.776L114.641 15.447 114.342 16.191 112.674 15.52ZM134.603 25.281L136.648 26.527 136.231 27.211 125.06 20.406 125.477 19.721 127.013 20.657 133.332 10.285 137.632 12.905C138.38 13.361 138.973 13.842 139.41 14.349 139.844 14.862 140.1 15.351 140.178 15.815V15.815C140.337 16.699 140.2 17.497 139.765 18.211V18.211C139.238 19.077 138.571 19.553 137.764 19.639V19.639C137.476 19.664 137.282 19.674 137.181 19.669 137.083 19.657 136.916 19.636 136.679 19.603V19.603C137.271 20.173 137.629 20.816 137.753 21.533 137.872 22.247 137.719 22.952 137.295 23.648V23.648C136.657 24.695 135.76 25.24 134.603 25.281ZM131.357 17.733L129.518 20.752 132.44 22.532C133.125 22.949 133.717 23.161 134.218 23.169 134.708 23.18 135.138 22.884 135.505 22.281V22.281C136.103 21.298 135.616 20.328 134.042 19.369V19.369ZM134.153 13.144L132.405 16.013 134.774 17.457C136.126 18.28 137.081 18.232 137.641 17.314V17.314C137.965 16.781 138.033 16.301 137.844 15.874 137.659 15.44 137.224 15.015 136.54 14.598V14.598ZM144.368 33.404L147.56 36.2 147.032 36.803 135.322 26.546 135.85 25.943 139.042 28.739C138.659 27.638 138.579 26.513 138.804 25.362 139.034 24.216 139.56 23.173 140.381 22.236V22.236C141.636 20.803 143.175 20.039 144.999 19.942 146.827 19.841 148.465 20.424 149.913 21.692 151.366 22.965 152.163 24.514 152.303 26.34 152.448 28.16 151.893 29.787 150.638 31.219V31.219C149.826 32.147 148.86 32.803 147.739 33.188 146.624 33.577 145.501 33.649 144.368 33.404ZM150.143 26.374C150.078 25.106 149.562 24.048 148.593 23.199 147.629 22.356 146.515 21.985 145.25 22.088 143.981 22.196 142.917 22.74 142.059 23.719 141.202 24.698 140.805 25.822 140.87 27.089 140.93 28.362 141.442 29.42 142.405 30.264 143.374 31.113 144.493 31.483 145.763 31.375 147.028 31.271 148.089 30.73 148.946 29.751 149.804 28.772 150.203 27.646 150.143 26.374ZM154.749 45.744L156.061 47.444 155.427 47.934 152.902 44.665 154.445 41.838 150.475 36.698 147.35 37.476 144.825 34.207 145.46 33.717 146.772 35.417 159.656 32.23 161.088 34.084ZM152.616 36.175L155.492 39.899 158.283 34.771ZM160.698 55.731L161.58 57.298 160.882 57.691 158.915 54.2 161.193 49.367 159.786 46.869 155.99 49.007 154.034 45.534 154.732 45.14 155.615 46.707 166.197 40.747 168.562 44.945C169.53 46.664 169.935 48.06 169.776 49.132 169.614 50.198 168.891 51.093 167.608 51.815V51.815C165.746 52.864 164.116 52.713 162.718 51.362V51.362ZM162.851 48.268C163.456 49.343 164.035 49.98 164.587 50.179 165.134 50.382 165.778 50.276 166.518 49.859 167.258 49.442 167.649 48.958 167.693 48.407 167.742 47.852 167.479 47.065 166.904 46.044V46.044L165.543 43.627 161.514 45.896ZM164.468 65.612L165.925 69.631 165.172 69.904 160.233 56.284 160.987 56.01 161.6 57.701 173.017 53.561 174.534 57.744C175.326 59.927 175.402 61.797 174.765 63.354 174.127 64.912 172.846 66.039 170.92 66.738V66.738C168.331 67.676 166.181 67.301 164.468 65.612ZM170.167 64.661V64.661C172.956 63.65 173.771 61.547 172.613 58.353V58.353L171.87 56.305 163.524 59.331 164.351 61.611C164.885 63.086 165.646 64.089 166.633 64.62 167.617 65.144 168.795 65.158 170.167 64.661Z" fill="#00ebff" data-fill-palette-color="primary"></path><path d="M5.304 89.644c0-0.84 0.681-1.52 1.521-1.52 0.84 0 1.52 0.681 1.52 1.52 0 0.84-0.681 1.52-1.52 1.521-0.84 0-1.52-0.681-1.521-1.521zM171.764 89.644c0-0.84 0.681-1.52 1.52-1.52 0.84 0 1.52 0.681 1.521 1.52 0 0.84-0.681 1.52-1.521 1.521-0.84 0-1.52-0.681-1.52-1.521z" fill="#00ebff" data-fill-palette-color="primary"></path></svg></g></svg></g></svg></g></svg></g></svg></g></svg></g><defs></defs></svg><rect width="320" height="360" fill="none" stroke="none" visibility="hidden"></rect></g></svg></g></svg>